<?xml version="1.0" standalone="no"?>
<!DOCTYPE svg PUBLIC "-//W3C//DTD SVG 20010904//EN"
 "http://www.w3.org/TR/2001/REC-SVG-20010904/DTD/svg10.dtd">
<svg version="1.0" xmlns="http://www.w3.org/2000/svg"
 width="1080.000000pt" height="1080.000000pt" viewBox="0 0 1080.000000 1080.000000"
 preserveAspectRatio="xMidYMid meet">
<metadata>
Created by potrace 1.11, written by Peter Selinger 2001-2013
</metadata>
<g transform="translate(0.000000,1080.000000) scale(0.100000,-0.100000)"
fill="#000000" stroke="none">
<path d="M4220 10780 c-8 -5 -10 -10 -5 -10 6 -1 -1 -7 -15 -15 -15 -8 -39
-40 -57 -77 -93 -189 -123 -253 -123 -264 0 -7 -4 -14 -8 -16 -5 -1 -29 -44
-55 -95 -54 -107 -68 -133 -84 -153 -6 -8 -11 -19 -11 -23 0 -5 -15 -41 -35
-80 -50 -105 -77 -165 -77 -177 0 -5 -4 -10 -10 -10 -5 0 -6 -7 -3 -17 4 -10
2 -14 -4 -10 -7 4 -13 -7 -17 -28 -4 -19 -11 -35 -16 -35 -6 0 -10 -6 -10 -13
0 -8 -6 -27 -14 -43 -22 -44 -76 -163 -78 -172 -1 -4 -14 -34 -28 -67 -38 -84
-43 -99 -42 -107 1 -5 -3 -8 -10 -8 -6 0 -8 -3 -5 -7 4 -3 0 -17 -8 -30 -9
-13 -13 -28 -10 -33 3 -6 1 -10 -5 -10 -7 0 -10 -7 -6 -15 3 -8 1 -15 -4 -15
-6 0 -10 -7 -10 -16 0 -13 -3 -14 -13 -5 -8 6 -16 10 -18 8 -2 -1 -3 0 -2 2 4
7 -178 183 -184 177 -3 -3 -15 1 -27 9 -25 18 -40 19 -30 3 4 -7 3 -8 -4 -4
-29 18 -65 -8 -76 -55 -3 -14 -42 -85 -49 -90 -5 -3 -9 -10 -9 -15 0 -5 -6
-22 -14 -39 -7 -16 -17 -43 -24 -60 -6 -16 -25 -47 -43 -67 -18 -21 -48 -58
-67 -83 -19 -26 -48 -61 -65 -79 -16 -19 -57 -64 -90 -101 -78 -88 -180 -190
-251 -251 -31 -27 -69 -61 -84 -76 -15 -16 -33 -28 -39 -28 -7 0 -9 -4 -6 -10
3 -5 -3 -10 -15 -10 -12 0 -18 -4 -15 -10 3 -5 1 -10 -5 -10 -6 0 -23 -11 -38
-25 -15 -14 -31 -25 -37 -25 -6 0 -22 -10 -36 -22 -29 -26 -49 -40 -102 -68
-20 -11 -37 -26 -37 -32 0 -6 -3 -9 -6 -5 -3 3 -24 -5 -45 -19 -21 -13 -43
-24 -49 -24 -5 0 -10 -5 -10 -12 0 -6 -3 -8 -7 -5 -3 4 -15 0 -25 -10 -10 -9
-18 -13 -18 -8 0 4 -6 3 -12 -3 -7 -6 -80 -45 -163 -88 -82 -42 -153 -81 -156
-86 -3 -6 -10 -9 -15 -9 -21 2 -44 -11 -38 -21 4 -7 2 -8 -4 -4 -13 8 -72 -20
-72 -34 0 -5 -7 -7 -15 -4 -8 4 -15 1 -15 -5 0 -6 -7 -11 -15 -11 -8 0 -15 -4
-15 -10 0 -5 -3 -9 -7 -8 -5 2 -30 -11 -58 -28 -27 -17 -54 -31 -59 -32 -5 0
-12 -5 -15 -10 -3 -5 -24 -19 -46 -31 -22 -11 -35 -21 -30 -21 5 0 -1 -7 -13
-16 -27 -18 -19 -37 11 -28 22 6 22 6 2 -10 -16 -13 -17 -15 -2 -10 9 3 17 2
17 -4 0 -5 14 -9 30 -8 17 1 30 -1 30 -4 0 -7 77 -12 175 -12 60 1 200 9 200
13 0 1 9 3 20 4 19 2 128 25 150 31 6 2 19 5 30 8 11 2 20 5 20 6 0 1 11 4 25
6 26 5 101 30 135 45 11 5 29 11 40 14 33 7 90 29 96 38 3 5 10 9 15 8 18 -1
60 12 79 24 11 6 45 20 75 31 30 10 57 21 60 24 10 10 50 30 60 30 5 0 10 -4
10 -10 0 -5 -7 -7 -15 -3 -9 3 -15 1 -13 -4 3 -10 -67 -70 -162 -138 -30 -22
-56 -43 -58 -47 -2 -5 -10 -8 -18 -8 -8 0 -14 -4 -14 -10 0 -5 -7 -10 -15 -10
-8 0 -15 -4 -15 -10 0 -5 -7 -10 -15 -10 -9 0 -18 -7 -21 -15 -4 -8 -12 -15
-20 -15 -8 0 -14 -5 -14 -11 0 -5 -4 -8 -9 -5 -5 3 -12 -1 -15 -10 -4 -9 -9
-14 -12 -11 -4 3 -18 -5 -32 -19 -15 -13 -32 -24 -39 -24 -7 0 -13 -4 -13 -10
0 -5 -4 -10 -10 -10 -13 0 -80 -47 -75 -52 3 -3 -1 -5 -8 -5 -15 0 -170 -102
-175 -115 -2 -4 -8 -6 -13 -2 -5 3 -9 0 -9 -5 0 -6 -7 -11 -15 -11 -8 0 -15
-5 -15 -11 0 -5 -4 -8 -9 -5 -4 3 -16 -3 -26 -14 -10 -11 -24 -20 -32 -20 -7
0 -13 -4 -13 -10 0 -5 -6 -10 -14 -10 -8 0 -21 -6 -28 -13 -7 -7 -29 -22 -48
-33 -19 -10 -43 -27 -54 -36 -11 -10 -25 -18 -32 -18 -6 0 -15 -7 -18 -16 -3
-8 -10 -13 -15 -10 -5 3 -20 -5 -35 -19 -15 -13 -28 -23 -31 -22 -2 1 -13 -6
-25 -15 -11 -10 -20 -15 -20 -13 0 3 -6 1 -12 -5 -45 -37 -62 -50 -68 -50 -4
0 -17 -9 -30 -20 -13 -11 -29 -20 -37 -20 -8 0 -12 -4 -9 -9 3 -5 -8 -14 -24
-21 -17 -7 -30 -15 -30 -19 0 -3 -21 -19 -45 -36 -25 -16 -45 -33 -45 -37 0
-5 -4 -8 -10 -8 -10 0 -31 -15 -78 -57 -14 -13 -28 -23 -31 -23 -3 0 -25 -19
-49 -41 -23 -23 -42 -39 -42 -36 0 2 -17 -12 -39 -32 -21 -20 -83 -76 -137
-126 -144 -131 -413 -404 -521 -528 l-33 -38 1 -1202 c1 -661 3 -1194 6 -1184
2 9 8 17 12 17 4 0 13 16 21 35 8 19 17 35 20 35 3 0 17 22 31 50 13 27 27 50
32 50 4 0 7 5 7 10 0 6 12 29 27 53 14 23 26 44 26 47 1 3 5 10 11 16 13 13
21 26 77 112 23 35 43 62 45 60 3 -3 -18 -71 -33 -108 -3 -8 -7 -19 -8 -25 -2
-5 -8 -30 -16 -55 -7 -25 -11 -51 -10 -59 1 -7 -2 -11 -6 -8 -5 3 -10 -4 -10
-16 -3 -45 -7 -67 -15 -67 -4 0 -5 -9 -3 -20 2 -11 0 -20 -4 -20 -5 0 -7 -11
-6 -25 2 -14 0 -25 -5 -25 -5 0 -7 -8 -6 -17 2 -10 -1 -33 -5 -53 -4 -19 -11
-55 -14 -80 -10 -65 -10 -64 -19 -79 -7 -11 -6 -12 5 -6 11 7 12 6 2 -6 -6 -8
-10 -33 -10 -56 1 -22 -1 -39 -5 -37 -5 3 -8 -5 -7 -18 0 -13 -2 -39 -5 -58
-3 -19 -6 -52 -7 -72 -2 -21 -8 -38 -13 -38 -6 0 -5 -4 3 -9 7 -5 11 -13 7
-19 -13 -21 -15 -82 -3 -82 9 0 9 -2 -1 -8 -7 -5 -10 -22 -8 -39 3 -32 0 -36
-74 -85 l-35 -24 -3 -1457 -2 -1457 5123 0 c4092 0 5124 3 5125 13 15 174 19
328 10 334 -5 2 -4 11 2 18 7 8 7 21 1 37 -5 14 -5 31 -1 38 5 8 6 18 3 23 -3
6 -7 43 -8 84 -2 40 -8 80 -14 87 -7 8 -8 17 -3 20 7 4 9 51 2 51 -4 0 -11 42
-11 63 1 16 -3 21 -12 16 -9 -6 -9 -5 0 8 7 8 10 17 7 20 -5 6 -14 44 -19 87
-1 13 -6 26 -11 30 -5 3 -10 20 -11 36 -4 53 -15 105 -24 111 -5 3 -9 14 -9
25 0 10 -4 19 -9 19 -5 0 -9 6 -8 12 1 33 -4 49 -13 43 -5 -3 -7 0 -4 9 3 8 0
25 -7 38 -7 13 -12 27 -11 31 1 4 -3 18 -10 30 -7 12 -13 29 -15 37 -2 8 -19
71 -38 140 -20 69 -36 132 -37 140 0 8 -5 21 -11 28 -5 6 -7 12 -3 12 3 0 1
12 -4 26 -7 16 -7 23 0 19 6 -3 10 -13 10 -21 0 -8 5 -14 10 -14 6 0 10 -7 10
-15 0 -9 7 -18 16 -22 8 -3 13 -11 11 -18 -3 -6 4 -17 14 -23 10 -7 19 -19 19
-27 0 -8 5 -15 10 -15 6 0 10 -7 10 -15 0 -9 7 -18 15 -21 8 -4 12 -10 9 -15
-3 -5 0 -9 5 -9 6 0 11 -7 11 -15 0 -8 5 -15 10 -15 6 0 9 -6 8 -12 -2 -7 2
-12 7 -11 6 1 12 -8 12 -19 1 -12 8 -25 15 -29 7 -5 9 -9 3 -9 -5 0 -3 -6 6
-13 9 -7 16 -14 16 -17 0 -19 16 -49 24 -45 5 3 6 -2 2 -11 -5 -13 -3 -15 7
-9 8 5 11 4 7 -2 -7 -12 30 -104 45 -114 5 -3 9 -9 9 -13 -1 -16 12 -66 18
-66 4 0 13 -21 20 -47 7 -27 15 -55 19 -63 3 -8 6 -17 7 -20 23 -88 30 -110
35 -110 5 0 10 -27 13 -67 0 -7 3 -13 7 -13 3 0 6 -8 7 -17 3 -46 8 -63 18
-63 5 0 5 -4 -2 -8 -10 -6 -9 -14 3 -37 10 -21 11 -30 3 -35 -8 -6 -8 -9 0
-14 6 -4 9 -11 6 -16 -3 -5 -1 -11 3 -14 5 -3 8 -17 7 -31 -2 -14 1 -27 5 -30
5 -3 6 -13 3 -21 -3 -9 0 -20 8 -25 8 -5 10 -9 4 -9 -5 0 -9 -15 -8 -32 1 -18
2 -33 4 -33 3 0 8 -48 10 -95 1 -25 6 -51 13 -59 8 -12 8 -13 -2 -7 -9 6 -12
1 -10 -16 2 -12 7 -29 12 -37 6 -9 5 -12 0 -8 -8 4 -10 -73 -5 -135 1 -5 69
-8 151 -8 l150 0 0 1178 0 1177 -56 83 c-31 45 -60 82 -65 82 -5 0 -9 6 -9 14
0 7 -10 24 -22 38 -13 14 -32 36 -43 50 -11 14 -48 51 -82 81 -34 30 -59 58
-56 61 4 3 2 6 -4 6 -5 0 -32 21 -59 48 -69 66 -170 152 -213 182 -20 14 -40
31 -44 38 -4 6 -12 12 -17 12 -6 0 -19 8 -29 17 -35 32 -50 43 -59 43 -4 0
-18 9 -30 20 -12 12 -22 18 -22 15 0 -3 -23 10 -51 30 -28 19 -58 35 -66 35
-8 0 -11 5 -8 10 5 9 -9 14 -18 8 -2 -2 -10 2 -18 9 -8 6 -39 25 -69 41 -30
17 -84 47 -120 67 -36 20 -73 39 -82 42 -10 3 -18 10 -18 15 0 5 -4 7 -9 4 -5
-3 -14 1 -21 9 -7 8 -17 15 -22 15 -9 0 -203 125 -224 145 -6 6 -28 24 -49 40
-22 17 -55 45 -74 63 -19 17 -38 32 -43 32 -4 0 -8 5 -8 11 0 6 -16 26 -35 45
-20 19 -33 34 -30 34 3 0 -2 8 -10 18 -47 58 -96 130 -101 150 -4 12 -9 22
-13 22 -4 0 -8 6 -8 13 0 6 -7 28 -15 47 -20 43 -53 141 -53 157 0 6 -4 15 -8
19 -4 4 -7 20 -7 36 0 16 -4 27 -8 24 -4 -2 -8 7 -9 22 -1 49 -3 53 -15 46
-10 -6 -10 -5 -1 8 7 8 10 17 7 20 -3 4 -12 39 -21 80 -8 40 -18 78 -22 83 -4
6 -7 17 -6 25 1 8 -3 23 -7 33 -10 19 -19 18 122 22 52 1 114 3 137 4 23 0 48
8 56 16 8 8 17 12 20 9 3 -3 15 10 28 28 27 37 89 161 84 167 -2 2 -14 -8 -27
-22 -24 -25 -129 -63 -151 -54 -7 3 -21 22 -32 43 -11 22 -29 47 -40 57 -11
11 -19 26 -17 34 2 8 -2 20 -8 27 -6 8 -11 46 -13 85 -1 39 -6 71 -10 71 -4 0
-3 8 2 19 6 10 8 21 5 24 -16 15 -23 408 -10 562 4 50 7 96 7 103 -2 30 -1 39
3 67 3 17 6 63 8 103 3 95 21 129 21 39 0 -12 5 -16 15 -12 12 4 13 3 2 -10
-9 -11 -9 -15 -1 -15 7 0 9 -4 6 -10 -3 -5 -3 -16 2 -22 4 -7 9 -24 11 -38 2
-13 9 -31 15 -39 10 -12 9 -13 -3 -6 -12 6 -13 5 -2 -6 6 -7 12 -23 12 -35 0
-13 5 -26 11 -29 6 -4 8 -13 5 -21 -3 -8 -1 -14 3 -14 5 0 7 -10 3 -22 -3 -13
-1 -19 5 -15 7 4 10 -5 8 -23 -2 -18 3 -31 12 -35 12 -4 12 -9 4 -19 -6 -7 -8
-16 -4 -20 8 -8 14 -34 14 -58 0 -10 4 -18 8 -18 8 0 9 -3 12 -57 1 -18 6 -33
11 -33 5 0 7 -4 3 -9 -3 -5 -2 -12 3 -15 4 -2 7 -21 7 -40 -1 -20 2 -36 6 -36
4 0 8 -8 8 -17 0 -10 2 -36 5 -58 4 -22 8 -59 10 -82 3 -24 8 -48 12 -54 13
-22 12 -104 -1 -119 -19 -21 -26 -67 -12 -78 41 -31 80 -11 117 60 12 24 35
55 52 69 16 14 42 45 57 67 15 23 32 39 36 35 5 -5 3 1 -5 11 -8 11 -10 17 -4
13 7 -4 14 2 17 13 3 11 2 22 -2 25 -4 2 -6 18 -3 34 2 17 8 29 12 26 4 -3 8
5 7 18 0 12 3 36 7 52 17 75 26 234 13 259 -6 12 -6 16 1 12 7 -4 9 64 7 211
-2 120 -4 218 -5 218 -1 0 -3 36 -5 80 -2 44 -4 80 -5 80 -1 0 -3 22 -5 49 -5
52 -9 81 -23 159 -5 26 -7 47 -4 47 2 0 -1 6 -7 14 -6 8 -11 18 -10 22 1 5 0
11 -1 14 -3 9 -8 35 -15 75 -10 61 -15 76 -27 69 -7 -4 -8 -2 -4 5 4 6 3 26
-3 44 -6 17 -12 43 -15 57 -5 34 -54 177 -70 208 -12 23 -10 35 16 105 37 102
47 181 35 288 -4 42 -2 48 20 60 26 14 163 155 163 168 0 4 11 14 25 21 14 7
25 17 25 21 0 4 13 21 29 38 43 46 109 179 127 256 10 39 15 70 17 88 1 9 4
17 7 17 7 0 12 75 14 197 0 51 5 93 10 93 5 0 3 6 -3 13 -6 8 -8 17 -5 20 13
13 -8 526 -22 549 -3 4 0 8 6 8 7 0 8 5 3 13 -4 6 -9 21 -9 32 -1 11 -2 28 -3
37 -1 11 -8 16 -21 13 -11 -2 -18 0 -15 5 3 5 -3 14 -14 19 -15 8 -20 7 -25
-5 -3 -8 -10 -13 -15 -10 -5 4 -11 1 -13 -4 -2 -6 -21 -15 -43 -21 -22 -5 -48
-12 -57 -14 -54 -15 -65 -17 -90 -22 -16 -3 -28 -9 -28 -14 0 -4 -9 -6 -20 -4
-11 2 -22 -1 -25 -6 -4 -5 -11 -7 -16 -3 -5 3 -16 0 -24 -6 -8 -6 -19 -9 -25
-5 -5 3 -10 1 -10 -5 0 -7 -7 -10 -15 -6 -8 3 -15 1 -15 -5 0 -6 -6 -9 -14 -6
-8 3 -17 3 -20 -1 -4 -3 -14 -7 -23 -8 -9 -2 -28 -6 -42 -10 -14 -4 -30 -6
-35 -5 -4 1 -14 -3 -22 -10 -7 -6 -18 -8 -23 -5 -5 4 -12 2 -16 -4 -4 -6 -11
-8 -16 -5 -5 4 -14 3 -21 -1 -10 -6 -45 -12 -105 -16 -7 -1 -13 -5 -13 -8 0
-4 -14 -6 -30 -5 -17 1 -32 -1 -35 -5 -3 -5 -18 -7 -35 -6 -16 1 -30 -1 -30
-4 0 -3 -10 -6 -22 -7 -13 0 -40 -3 -60 -6 -34 -5 -40 -2 -60 26 -28 39 -56
74 -85 104 -13 13 -23 26 -23 28 0 2 -19 24 -42 49 -79 81 -138 149 -138 157
0 4 -9 11 -20 14 -11 3 -20 11 -20 17 0 5 -16 25 -35 44 -20 19 -33 34 -31 34
2 0 -22 27 -54 60 -32 33 -56 60 -54 60 2 0 -20 25 -49 55 -28 30 -77 82 -107
116 -58 66 -263 272 -299 302 -12 9 -26 17 -32 17 -5 0 -7 5 -4 10 3 6 -1 10
-9 10 -9 0 -16 5 -16 10 0 6 -7 10 -15 10 -8 0 -15 4 -15 9 0 8 -159 91 -173
91 -3 0 -18 5 -34 12 -15 6 -32 12 -38 14 -5 1 -41 12 -78 23 -75 22 -120 32
-154 34 -13 0 -23 5 -23 10 0 5 -7 4 -15 -3 -8 -7 -15 -8 -15 -3 0 8 -35 13
-102 16 -10 1 -18 5 -18 10 0 6 -5 6 -12 1 -12 -9 -32 -10 -50 -4 -20 6 -34 5
-45 -3 -7 -5 -13 -6 -13 -1 0 11 -381 12 -397 1 -7 -5 -13 -4 -13 0 0 5 -9 9
-20 10 -11 1 -20 -1 -20 -5 0 -4 -13 -7 -29 -7 -24 0 -26 3 -18 17 6 9 14 15
18 12 4 -2 14 3 22 11 9 8 20 15 26 15 6 0 11 5 11 10 0 6 6 10 14 10 8 0 21
6 28 13 7 6 30 21 51 32 20 11 37 23 37 27 0 5 4 8 9 8 5 0 31 10 58 22 26 12
50 22 53 23 3 1 17 7 33 13 15 7 39 17 55 24 15 6 30 11 35 10 4 -1 7 3 7 8 0
6 6 10 13 8 18 -3 57 12 57 23 0 5 7 9 15 9 17 0 216 75 258 97 15 8 27 11 27
7 0 -3 6 -2 13 3 6 6 30 16 52 23 22 7 45 17 51 22 7 5 16 8 20 7 5 -1 21 3
36 9 14 6 50 13 80 15 68 6 88 14 88 38 0 17 -11 24 -32 20 -5 0 -8 3 -8 8 0
11 -12 12 -250 14 -228 1 -330 -3 -330 -13 0 -4 -7 -7 -15 -7 -8 0 -15 5 -15
10 0 6 -5 6 -12 0 -7 -5 -28 -9 -45 -8 -18 0 -33 -3 -33 -7 0 -5 -12 -8 -27
-7 -40 1 -96 -11 -112 -24 -12 -9 -13 -9 -7 1 4 6 3 12 -1 12 -5 0 -15 -6 -22
-12 -8 -8 -11 -8 -8 -2 5 8 -5 11 -28 11 -19 -1 -35 -5 -35 -10 0 -4 -5 -5
-10 -2 -6 4 -17 2 -25 -5 -9 -7 -15 -8 -20 0 -4 7 -12 7 -24 0 -10 -5 -28 -7
-40 -5 -11 2 -21 0 -21 -4 0 -8 -75 -26 -92 -22 -5 0 -8 -3 -8 -8 0 -5 -7 -8
-17 -7 -9 2 -33 -6 -54 -16 -21 -10 -44 -17 -51 -16 -7 2 -12 -3 -10 -10 1 -8
-2 -11 -7 -8 -11 7 -74 -14 -83 -28 -4 -6 -8 -7 -8 -2 0 5 -7 2 -17 -5 -9 -8
-18 -13 -19 -12 -2 1 -21 -5 -41 -14 -21 -9 -40 -17 -43 -18 -3 0 -11 -4 -17
-8 -7 -5 -13 -5 -13 -1 0 4 -7 -1 -16 -12 -8 -10 -13 -13 -9 -6 3 6 1 12 -4
12 -6 0 -11 -4 -11 -8 0 -8 -53 -33 -142 -69 -21 -8 -38 -19 -38 -25 0 -5 -4
-7 -9 -3 -5 3 -12 1 -16 -5 -4 -6 -11 -8 -16 -5 -5 4 -9 1 -9 -6 0 -7 -3 -10
-6 -6 -4 3 -13 -1 -21 -9 -8 -8 -18 -12 -23 -9 -4 3 -13 -2 -20 -10 -7 -8 -16
-12 -21 -9 -5 3 -9 0 -9 -5 0 -6 -7 -11 -16 -11 -8 0 -12 -4 -9 -10 3 -5 0 -7
-8 -4 -8 3 -23 -3 -32 -13 -10 -10 -19 -16 -19 -15 -2 8 -56 -22 -56 -30 0 -4
-5 -8 -11 -8 -18 0 -152 -113 -144 -122 2 -2 -5 -14 -15 -28 l-20 -25 0 28 c0
15 -5 27 -11 27 -5 0 -8 4 -5 8 7 12 -15 82 -26 82 -5 0 -7 4 -4 9 8 13 -38
96 -52 94 -6 -2 -14 6 -17 17 -4 11 -10 20 -14 20 -4 0 -16 18 -26 40 -10 22
-22 40 -27 40 -4 0 -8 6 -8 13 0 8 -11 27 -25 43 -14 16 -25 33 -25 37 0 11
-170 181 -170 170 0 -4 -4 -3 -8 2 -11 15 -70 55 -82 55 -5 0 -10 3 -10 8 0
16 -191 77 -214 69 -9 -4 -16 -2 -16 4 0 6 -6 9 -13 6 -8 -3 -20 -1 -28 3 -8
5 -19 4 -26 -2 -7 -6 -13 -6 -13 -1 0 5 -9 9 -20 10 -12 1 -18 -3 -14 -9 4 -6
-1 -6 -14 1 -25 13 -23 13 -42 1z"/>
</g>
</svg>
